<svg xmlns="http://www.w3.org/2000/svg" xmlns:xlink="http://www.w3.org/1999/xlink" version="1.1" x="0px" y="0px" viewBox="0 0 100 125" enable-background="new 0 0 100 100" xml:space="preserve"><g><g><path d="M49.938,55.083c-6.194,0-11.233-5.04-11.233-11.234s5.039-11.234,11.233-11.234s11.234,5.04,11.234,11.234    S56.132,55.083,49.938,55.083z M49.938,36.615c-3.988,0-7.233,3.245-7.233,7.234s3.245,7.234,7.233,7.234    c3.989,0,7.234-3.245,7.234-7.234S53.927,36.615,49.938,36.615z"/></g><g><path d="M70.218,73.059h-4v-7.255c0-1.235-1.005-2.24-2.24-2.24H35.898c-1.235,0-2.24,1.005-2.24,2.24v7.255h-4v-7.255    c0-3.441,2.8-6.24,6.24-6.24h28.079c3.44,0,6.24,2.799,6.24,6.24V73.059z"/></g><g><path d="M87.959,93.528H12.105c-3.883,0-7.041-3.159-7.041-7.042V23.92c0-3.882,3.158-7.041,7.041-7.041h21.84    c0.734,0,1.444-0.266,1.998-0.749l8.899-7.759c2.903-2.531,7.285-2.533,10.19,0l8.899,7.759c0.554,0.483,1.264,0.749,1.998,0.749    h22.028c3.883,0,7.041,3.159,7.041,7.041v62.567C95,90.37,91.842,93.528,87.959,93.528z M12.105,20.879    c-1.677,0-3.041,1.364-3.041,3.041v62.567c0,1.677,1.364,3.042,3.041,3.042h75.854c1.677,0,3.041-1.364,3.041-3.042V23.92    c0-1.677-1.364-3.041-3.041-3.041H65.931c-1.701,0-3.345-0.616-4.627-1.734l-8.899-7.759c-1.407-1.227-3.527-1.226-4.933,0    l-8.899,7.759c-1.282,1.118-2.925,1.734-4.627,1.734H12.105z"/></g></g><text x="0" y="115" fill="#000000" font-size="5px" font-weight="bold" font-family="'Helvetica Neue', Helvetica, Arial-Unicode, Arial, Sans-serif">Created by AB</text><text x="0" y="120" fill="#000000" font-size="5px" font-weight="bold" font-family="'Helvetica Neue', Helvetica, Arial-Unicode, Arial, Sans-serif">from the Noun Project</text></svg>